<svg width="24px" height="24px" viewBox="0 2 24 24" version="1.1" xmlns="http://www.w3.org/2000/svg" xmlns:xlink="http://www.w3.org/1999/xlink">
    <!-- Generator: Sketch 39.1 (31720) - http://www.bohemiancoding.com/sketch -->
    <desc>Created with Sketch.</desc>
    <defs></defs>
    <g id="ic_view_list" stroke="none" stroke-width="1" fill="none" fill-rule="evenodd" transform="translate(0.000000, 2.000000)">
        <path d="M4,14 L8,14 L8,10 L4,10 L4,14 L4,14 Z M4,19 L8,19 L8,15 L4,15 L4,19 L4,19 Z M4,9 L8,9 L8,5 L4,5 L4,9 L4,9 Z M9,14 L21,14 L21,10 L9,10 L9,14 L9,14 Z M9,19 L21,19 L21,15 L9,15 L9,19 L9,19 Z M9,5 L9,9 L21,9 L21,5 L9,5 L9,5 Z" id="Shape" fill="#FFFFFF"></path>
        <polygon id="Shape" points="0 0 24 0 24 24 0 24"></polygon>
    </g>
</svg>