<svg width="24px" height="24px" viewBox="0 2 24 24" version="1.1" xmlns="http://www.w3.org/2000/svg" xmlns:xlink="http://www.w3.org/1999/xlink">
    <!-- Generator: Sketch 39.1 (31720) - http://www.bohemiancoding.com/sketch -->
    <desc>Created with Sketch.</desc>
    <defs></defs>
    <g id="ic_inbox" stroke="none" stroke-width="1" fill="none" fill-rule="evenodd" transform="translate(0.000000, 2.000000)">
        <path d="M19,3 L4.99,3 C3.88,3 3.01,3.89 3.01,5 L3,19 C3,20.1 3.88,21 4.99,21 L19,21 C20.1,21 21,20.1 21,19 L21,5 C21,3.89 20.1,3 19,3 L19,3 Z M19,15 L15,15 C15,16.66 13.65,18 12,18 C10.35,18 9,16.66 9,15 L4.99,15 L4.99,5 L19,5 L19,15 L19,15 Z" id="Shape" fill="#FFFFFF"></path>
        <polygon id="Shape" points="0 0 24 0 24 24 0 24"></polygon>
    </g>
</svg>