<svg width="24px" height="24px" viewBox="0 0 24 24" version="1.1" xmlns="http://www.w3.org/2000/svg" xmlns:xlink="http://www.w3.org/1999/xlink">
    <!-- Generator: Sketch 39.1 (31720) - http://www.bohemiancoding.com/sketch -->
    <desc>Created with Sketch.</desc>
    <defs></defs>
    <g id="tag_24px" stroke="none" stroke-width="1" fill="none" fill-rule="evenodd">
        <polygon id="Shape" points="0 0 24 0 24 24 0 24"></polygon>
        <path d="M18.48,4.96 C18.0252632,4.37714286 17.2673684,4 16.4210526,4 L2.52631579,4.01142857 C1.13684211,4.01142857 0,5.02857143 0,6.28571429 L0,17.7142857 C0,18.9714286 1.13684211,19.9885714 2.52631579,19.9885714 L16.4210526,20 C17.2673684,20 18.0252632,19.6228571 18.48,19.04 L24,12 L18.48,4.96 Z M16,14 C17.1045695,14 18,13.1045695 18,12 C18,10.8954305 17.1045695,10 16,10 C14.8954305,10 14,10.8954305 14,12 C14,13.1045695 14.8954305,14 16,14 Z" id="Combined-Shape" fill="#12829B" transform="translate(12, 12) scale(-1, 1) translate(-12, -12) "></path>
    </g>
</svg>