<svg width="24px" height="24px" viewBox="0 0 24 24" version="1.1" xmlns="http://www.w3.org/2000/svg" xmlns:xlink="http://www.w3.org/1999/xlink">
    <!-- Generator: Sketch 39.1 (31720) - http://www.bohemiancoding.com/sketch -->
    <desc>Created with Sketch.</desc>
    <defs></defs>
    <g id="Icon-24px" stroke="none" stroke-width="1" fill="none" fill-rule="evenodd">
        <polygon id="Shape" points="0 0 24 0 24 24 0 24"></polygon>
        <path d="M5.52,4.96 C5.97473684,4.37714286 6.73263158,4 7.57894737,4 L21.4736842,4.01142857 C22.8631579,4.01142857 24,5.02857143 24,6.28571429 L24,17.7142857 C24,18.9714286 22.8631579,19.9885714 21.4736842,19.9885714 L7.57894737,20 C6.73263158,20 5.97473684,19.6228571 5.52,19.04 L0,12 L5.52,4.96 L5.52,4.96 Z M7.57894737,17.7142857 L21.4736842,17.7142857 L21.4736842,6.28571429 L7.57894737,6.28571429 L3.09473684,12 L7.57894737,17.7142857 L7.57894737,17.7142857 Z M8,14 C9.1045695,14 10,13.1045695 10,12 C10,10.8954305 9.1045695,10 8,10 C6.8954305,10 6,10.8954305 6,12 C6,13.1045695 6.8954305,14 8,14 Z" id="Combined-Shape" fill="#12829B"></path>
    </g>
</svg>